<?xml version="1.0" encoding="UTF-8"?>
<svg width="391px" height="324px" viewBox="0 0 391 324" version="1.1" xmlns="http://www.w3.org/2000/svg" xmlns:xlink="http://www.w3.org/1999/xlink">
    <!-- Generator: Sketch 40.3 (33839) - http://www.bohemiancoding.com/sketch -->
    <title>Group 3</title>
    <desc>Created with Sketch.</desc>
    <defs></defs>
    <g id="Welcome" stroke="none" stroke-width="1" fill="none" fill-rule="evenodd">
        <g id="Jugo-Desktop-HD" transform="translate(-525.000000, -233.000000)" fill="#373A36">
            <g id="Group-3" transform="translate(525.000000, 233.000000)">
                <path d="M59.1647041,220.113982 C58.3438292,222.632776 55.1675424,232.432698 54.300836,234.791879 C50.2373823,245.849162 45.1394462,256.469138 40.4531751,267.262571 C35.374881,278.960751 29.7547931,290.391822 22.913623,301.192584 C21.4887544,303.442641 20.0949857,305.712243 18.6365618,307.940312 C14.3554085,314.482009 9.07496473,318.733746 6.80303171,317.447068 C4.53109869,316.160391 5.23739487,311.795459 6.32998514,309.217218 C7.85470099,305.619407 9.62412433,302.11036 11.4901212,298.671348 C13.7391385,294.524663 16.173937,290.482215 18.4884278,286.372176 C26.6030589,271.963016 34.4001432,257.284305 42.9624498,243.12678 C47.2436031,236.047611 51.6270589,229.029518 55.9826884,221.995137 C56.6456084,220.924263 57.3617256,219.881077 58.1277664,218.881866 C58.3233687,218.626159 58.8970809,217.802034 59.3578512,218.085429 C59.8194399,218.368824 59.3202039,219.636771 59.1647041,220.113982 L59.1647041,220.113982 Z M139.855155,115.525826 C140.34457,114.89226 141.694144,113.07381 142.178649,112.4378 C141.89302,112.82869 141.648313,118.469712 141.661407,119.423319 C141.692507,121.573211 141.914299,123.744276 142.47819,125.825762 C143.982446,131.385349 148.030349,132.508341 152.080708,128.390973 C154.143944,126.2932 156.182628,124.125393 157.910312,121.757255 C162.78973,115.071417 167.403161,108.212937 171.473163,100.983927 C175.941734,93.0456148 180.707392,85.2726165 185.369929,77.4434278 C185.676836,76.9279425 187.550199,74.3130553 187.050144,76.4051279 C186.811166,77.4059676 186.515716,79.0900494 186.119601,80.3946427 C182.247658,93.1408941 186.04758,102.111806 192.114525,102.111806 C194.228503,102.111806 196.29665,101.67857 198.244489,100.720076 C203.162372,98.300634 211.81716,94.1791941 213.032514,93.5334122 C214.247867,92.8876304 217.512543,90.3688369 216.570542,89.2670174 C215.628541,88.1660123 212.953127,89.9429303 211.562632,90.5072769 C208.050793,91.9323944 204.642894,93.6148475 201.126144,95.0285641 C199.182397,95.8103429 197.138804,96.4585678 195.078023,96.8079252 C192.413248,97.2607054 190.668378,96.3461871 189.619982,93.8575247 C187.447078,88.6961561 190.029192,81.726924 191.035848,78.8286421 C192.644043,74.1974172 194.497763,69.6492563 196.3122,65.0913232 C197.043048,63.2541431 197.678961,61.4340644 197.701876,59.4201697 C197.728066,57.1065932 196.836807,54.0568416 194.582879,55.7067205 C192.328951,57.3557851 182.133079,78.0436059 179.434749,82.6398136 C174.249242,91.4755425 168.935243,100.229022 162.693975,108.374994 C159.282801,112.827061 155.700579,117.151275 152.128177,121.477117 C151.177173,122.627798 149.928265,124.340382 148.319251,123.927505 C146.711057,123.514628 146.206092,121.683149 146.03095,118.831285 C145.734682,113.994029 147.180011,107.025611 148.261144,103.979117 C152.11099,93.1311219 156.7457,82.6512146 163.2816,73.1029269 C164.38974,71.4839934 164.645906,69.7583796 164.681098,67.9350435 C164.704013,66.6898979 163.669531,65.5204872 162.452541,65.2134762 C161.439337,64.9577694 160.361479,65.4032204 159.748482,66.6654674 C158.467655,69.3039707 157.332507,72.0125084 156.131067,74.688472 C151.65022,84.6642949 147.174282,94.6401178 143.85068,105.080122 C143.606791,105.845614 143.082184,106.549214 142.581311,107.199882 C132.274134,120.597616 121.118255,133.103633 110.011482,145.835226 C104.500244,152.152976 99.555352,158.873016 94.2961871,165.365037 C88.6957413,172.278079 73.3896565,192.684948 71.2314838,194.833211 C71.795375,193.167045 74.2866445,187.010537 74.7310464,185.911975 C76.4096251,181.760404 78.2175142,177.659323 79.8928193,173.506123 C84.9768423,160.903198 90.08951,148.310859 95.0581358,135.663145 C98.490588,126.926767 101.733985,118.115469 104.992932,109.313128 C105.768794,107.216984 106.39734,105.047548 106.867932,102.864268 C107.567681,99.6117422 106.156725,96.8103682 103.207141,95.632814 C100.780526,94.663734 98.4930432,97.6955698 97.9643441,98.4073142 C96.0459684,100.988813 83.227061,120.639148 77.5218575,126.842888 C75.2499244,129.312006 73.1465859,131.934223 70.9204844,134.446501 C66.4641892,139.478388 61.9759757,144.483401 57.5016754,149.499814 C56.7577319,150.333712 56.0612567,151.215656 55.264116,151.995806 C52.6615414,154.543102 50.0458721,157.055381 46.9023221,158.99354 C44.9348412,160.206112 44.2530976,162.923607 45.2802143,164.470878 C48.2109752,168.886299 53.5151531,164.866653 55.1577214,163.679327 C61.2729532,159.258205 74.2007104,140.253652 77.719915,135.544249 C82.1598418,129.601916 86.431174,123.532544 90.6681327,117.444442 C92.3418009,115.039658 93.4245702,113.168275 95.3781379,110.502898 C96.2161997,109.37339 97.4945712,107.185224 97.6083316,107.389627 C97.7220919,107.594844 97.0869982,109.514273 96.7678145,110.572118 C94.9468308,116.605658 93.0538261,122.617211 91.2549396,128.656452 C86.0890746,145.99484 79.74223,162.927679 73.4935958,179.892279 C70.8304582,187.123732 67.8489553,194.240362 65.233286,201.488103 C63.6406413,205.903524 61.270498,209.810789 58.4952368,213.531568 C57.9951824,214.20178 57.4517518,214.845933 57.0122604,215.552792 C52.7237413,222.456061 48.6594692,229.509171 44.1000532,236.229211 C39.2157245,243.085248 35.1997392,250.510518 30.9676911,257.770474 C26.8043902,264.91072 21.7956617,271.550139 17.4482164,278.582891 C13.1253237,285.574925 8.90882554,292.632921 4.5229145,299.587495 C2.22970256,303.223581 0.820383883,307.367822 0.249945369,311.683893 C-0.38351146,316.481246 0.404626688,323.147538 5.58686007,323.694783 C9.67895845,324.127205 15.4971039,317.702775 18.7920615,313.003144 C21.3700835,309.336928 23.6821191,305.480967 26.0097047,301.646993 C27.8274148,298.652618 29.3660437,295.488042 31.2410432,292.532756 C34.7905294,286.938151 37.3325409,280.854121 40.1356283,274.899573 C42.9403525,268.940138 45.6525953,262.935914 48.2813593,256.897488 C50.9084864,250.864762 53.6215477,244.852394 55.8656544,238.675528 C58.9740123,230.117493 61.7296314,221.429976 64.5368109,212.766076 C66.1466424,207.800152 68.1452232,203.093192 71.4737361,198.964423 C75.0837852,194.486297 78.4262112,189.795624 81.9773342,185.268636 C92.7411897,171.54679 103.23333,157.468257 114.945734,144.529819 C118.43302,140.678744 121.966956,136.870016 125.412503,132.980666 C130.421232,127.3258 135.239268,121.503177 139.855155,115.525826 L139.855155,115.525826 Z" id="Fill-2"></path>
                <path d="M332.429141,37.9493486 C331.383201,40.9901423 330.113014,43.9657878 328.724155,46.8665128 C325.668995,53.2510394 321.612907,58.9604675 316.273537,63.6625411 C312.580827,66.9134378 308.644229,69.8369647 303.707521,71.0544223 C300.306987,71.8923914 298.422167,70.9110961 297.09469,67.6667142 C294.770378,61.9849741 296.845891,57.313846 300.379008,52.9464714 C309.105817,45.4348804 317.402138,37.4257197 326.598719,30.4589308 C327.689673,29.6331769 328.910755,28.7740346 330.14084,28.0517036 C331.371743,27.3285583 334.489104,31.9614118 332.429141,37.9493486 M238.716815,95.9508188 C238.023613,96.4125568 237.213378,96.7073526 236.444063,97.0485665 C231.94521,99.0445454 228.447285,96.6650062 228.9367,91.7275847 C229.139668,89.6876307 229.802588,87.5800854 230.740496,85.7486058 C232.519741,82.2721333 234.998734,77.693027 237.259209,74.222255 C240.52143,69.5437976 244.056185,64.5526288 247.679329,60.4735352 C249.645173,58.2593097 252.124984,56.6322326 254.734925,55.2299169 C257.685327,53.6443719 259.877874,53.2999006 263.388076,53.8992643 C262.504183,61.5729116 259.016078,70.8557202 255.932273,77.4185901 C252.183092,85.398434 245.939368,91.1428793 238.716815,95.9508188 M388.742962,0.807527741 C386.453024,2.42238952 384.244928,4.1512607 381.950079,5.75797895 C376.428201,9.62371211 370.788471,13.2997011 365.064444,16.8738959 C358.250282,21.1297041 350.769108,23.391162 343.141436,25.3977276 C341.65846,25.7869882 340.081365,25.8692379 338.539462,25.9767325 C336.090751,26.1469322 333.794265,25.8374781 331.951184,23.9082761 C330.763657,22.666388 329.263494,22.4961882 327.689673,23.264123 C326.68138,23.7559921 318.803272,29.0590581 316.06975,31.4605848 C309.725361,37.0356447 303.64614,42.851753 299.326521,50.2306045 C298.626772,51.4252602 297.751881,52.5718691 296.755046,53.5311768 C292.508266,57.6143422 288.120718,61.5525528 283.908312,65.6691066 C279.293244,70.1781785 281.416224,67.9167206 276.9853,72.6041358 C273.129725,76.6824151 272.62476,77.8469397 268.93778,82.0791317 C264.054269,87.6835082 267.110248,84.1084991 262.289757,89.7666229 C260.830514,91.4792071 259.98836,92.2446988 257.918577,93.3163872 C257.869472,93.0606804 257.718883,92.7748425 257.785993,92.5541529 C259.214954,87.867552 261.324021,79.3046314 262.912574,74.6709634 C264.503582,70.029152 268.252762,54.4725687 268.252762,54.4725687 C268.252762,54.4725687 270.373288,54.9017327 271.203165,52.9521719 C272.033043,51.0026111 269.501671,49.9553533 268.468825,49.4471971 C265.709114,48.0888564 262.816,47.8820108 259.833679,48.5049908 C256.001838,49.3046853 252.721612,51.1988701 249.919343,53.8227151 C241.337394,61.8595638 233.955249,73.8215934 228.461198,84.1972635 C226.8129,87.3089059 225.350385,90.4979118 224.828233,94.0118445 C223.834671,100.708268 229.484222,105.221412 235.755772,102.633399 C239.297074,101.172449 241.827628,98.8710882 244.166671,97.0933559 C247.894573,94.2594078 250.751676,90.6029633 253.508113,86.868341 C253.865763,86.3846154 255.803781,83.7428546 255.26526,86.1745123 C254.727559,88.6061701 252.104524,100.029098 250.657558,104.988507 C250.35065,106.04228 249.715557,107.03009 249.094376,107.958452 C245.277267,113.665437 241.476526,119.383823 237.562024,125.024846 C234.213051,129.850701 231.279017,134.934706 228.031527,139.825709 C224.629357,144.951246 221.715783,150.394381 218.492846,155.640442 C216.076053,159.575396 213.498031,163.411812 211.010035,167.30279 C209.954274,168.953483 208.885417,170.600105 207.925411,172.30536 C203.875052,179.497725 199.775588,186.664844 195.865997,193.932944 C192.548942,200.099224 189.306364,206.315994 186.327316,212.648402 C182.939059,219.852982 179.574535,227.077107 176.716614,234.518663 C174.759772,239.613255 172.597507,244.632112 170.736421,249.760092 C169.444136,253.320443 168.682188,257.064023 168.533235,260.854836 C168.334359,265.910338 170.06368,267.912832 172.182569,267.898174 C177.585775,267.860714 187.541851,260.753856 192.751092,255.26756 C194.391205,253.540318 195.774334,251.556554 197.504473,249.932735 C201.141531,246.518153 203.767839,242.396713 206.263201,238.166964 C206.464532,237.82575 206.880289,236.156327 206.276296,236.788265 C205.672302,237.421017 202.30205,240.352687 201.692327,243.189078 C201.537646,243.908152 200.776515,244.687488 200.086588,245.067791 C198.284427,246.060487 197.23194,247.69815 195.949476,249.178644 C190.763151,255.167395 184.804237,260.22697 177.634062,263.757189 C176.882753,264.126906 176.069244,264.398899 175.257371,264.615517 C173.117204,265.187193 172.104819,264.496622 171.821646,262.205847 C171.44108,259.125964 171.54993,256.063183 172.309424,253.030533 C173.845597,246.891127 176.298401,241.070132 178.674274,235.236108 C182.638698,225.498891 187.093357,215.981548 191.775536,206.558671 C197.64606,194.745668 203.654079,183.015729 210.641746,171.811862 C217.472277,160.861259 224.343728,149.9359 231.29293,139.060218 C236.128972,131.493251 241.123787,124.027263 246.058858,116.523816 C246.410778,115.987972 247.829918,113.889384 248.789924,112.695543 C248.595959,114.250143 246.910832,120.669686 246.524538,122.448233 C244.294345,132.717223 241.654941,142.881976 238.685715,152.963664 C237.699519,156.313098 236.971125,159.743967 235.849072,163.045353 C234.6329,166.625249 233.564863,174.166156 233.946246,174.222347 C234.32763,174.279351 235.27536,172.340377 235.585541,171.353381 C237.142994,166.411074 238.640702,161.450036 240.184241,156.503656 C243.817206,144.860853 246.84454,133.055179 249.781849,121.225889 C250.896536,116.738805 252.003858,112.250092 253.086627,107.755678 C253.653792,105.404641 254.748838,103.341886 256.093501,101.328805 C261.097319,93.8432735 259.049633,96.2415427 264.848955,89.3838771 C268.02115,85.633782 271.259636,81.9358056 274.580783,78.316007 C282.36641,69.8312642 280.60517,71.5625785 289.041441,63.7146597 C290.041549,62.7846687 291.112042,61.9287838 292.658037,60.6038316 C292.685045,62.2032207 292.752974,63.1389122 292.707961,64.0697175 C292.584379,66.6341148 293.106531,69.099161 293.931498,71.4909154 C295.118207,74.9299277 297.50881,76.3623744 301.078757,75.874577 C303.333503,75.5667516 305.523594,74.9470291 307.434604,73.7132844 C314.703808,69.01854 321.149681,63.436151 325.889968,56.1183759 C330.718644,48.6637896 334.913863,32.6731563 337.546719,31.6967472 C338.921664,31.2993429 338.62376,31.3669342 339.171282,31.2390808 C347.764689,29.2260005 355.67717,25.5866574 363.092053,20.9301876 C370.823663,16.0742013 388.138968,4.23269599 390.005784,2.20821471 C390.311873,1.87595873 391.296432,1.01925949 390.684254,0.371034592 C390.072076,-0.276375954 389.121072,0.540419993 388.742962,0.807527741" id="Fill-4"></path>
                <path d="M115.038706,74.1561295 C117.706755,70.1055383 119.831372,65.7772527 121.155575,61.0808796 C121.793942,58.8169785 120.663705,57.5734617 119.910759,57.0783351 C118.922108,56.4292959 117.701844,57.1214958 117.168234,58.1614245 C114.483818,63.3903844 108.749151,72.7920884 109.354782,74.4883855 C109.703429,75.4631659 111.617712,75.9012878 112.319098,75.7506325 C113.311023,75.5380864 114.510007,74.9582671 115.038706,74.1561295" id="Fill-6"></path>
                <path d="M230.474674,179.384937 C230.177587,179.866219 230.436208,180.770151 230.199685,181.310067 C229.963161,181.850797 229.308426,182.040542 229.194665,182.478663 C228.305862,185.91849 226.533983,192.673547 226.314647,194.096222 C226.287639,194.271308 226.280273,194.380431 226.43741,194.381245 C226.594546,194.381245 227.490716,193.161345 227.781255,192.455301 C229.852675,187.418528 234.014339,176.779008 233.12799,176.963866 C232.622207,177.068917 230.77176,178.903654 230.474674,179.384937" id="Fill-8"></path>
                <path d="M208.798338,232.238719 C208.466878,232.838083 207.711476,233.923616 208.025749,234.158149 C208.339204,234.391868 213.378214,226.574895 215.096895,222.301985 C215.274493,221.756369 215.205745,221.010422 214.712238,221.696107 C214.217913,222.380978 210.746995,228.719901 208.798338,232.238719" id="Fill-10"></path>
                <path d="M224.392179,199.241303 C224.829215,199.069475 225.57234,198.068635 226.0282,197.065352 C226.605186,195.792519 226.817156,194.500141 226.415312,194.719202 C225.69674,195.11172 223.400254,199.631378 224.392179,199.241303" id="Fill-12"></path>
                <path d="M233.196983,177.007271 C233.688853,177.007271 234.326402,174.2515 233.946656,174.222998 C233.782972,174.209968 233.495706,174.475448 233.300922,175.054452 C233.042302,175.822387 232.86225,177.007271 233.196983,177.007271" id="Fill-14"></path>
                <path d="M224.308454,199.564846 C223.955716,199.686999 222.105269,201.957414 223.119291,201.619458 C223.589882,201.463102 224.100576,201.063255 224.321549,200.606403 C224.578533,200.077888 224.497509,199.498883 224.308454,199.564846" id="Fill-16"></path>
                <path d="M222.029319,204.601618 C221.963846,204.773447 221.859906,205.21564 222.11198,205.240885 C222.363235,205.26613 222.594847,204.921659 222.669323,204.718885 C222.732342,204.547057 222.782265,204.076361 222.500729,204.076361 C222.220011,204.076361 222.107069,204.396401 222.029319,204.601618" id="Fill-18"></path>
                <path d="M219.810011,210.114299 C219.721621,210.326845 219.764179,210.491344 219.958963,210.415609 C220.154565,210.33906 220.599786,209.853706 220.647254,209.69165 C220.694722,209.529593 220.650528,209.220139 220.438557,209.318676 C220.226586,209.418027 219.8984,209.901753 219.810011,210.114299" id="Fill-20"></path>
            </g>
        </g>
    </g>
</svg>