<!-- Generator: Adobe Illustrator 20.1.0, SVG Export Plug-In  -->
<svg version="1.1"
	 xmlns="http://www.w3.org/2000/svg" xmlns:xlink="http://www.w3.org/1999/xlink" xmlns:a="http://ns.adobe.com/AdobeSVGViewerExtensions/3.0/"
	 x="0px" y="0px" width="348.7px" height="290.6px" viewBox="0 0 348.7 290.6" style="enable-background:new 0 0 348.7 290.6;"
	 xml:space="preserve">
<defs>
</defs>
<g>
	<path d="M124.4,103.6c0.4-0.6,1.6-2.2,2.1-2.8c-0.3,0.4-4.3,15,3.4,15c12.7,0,36.7-47.4,36.7-47.4c-0.2,0.9-6.1,22.6,4.5,23.1
		c5.6,0.2,17.6-7.1,18.7-7.7c1.1-0.6,4-2.8,3.2-3.8c-0.8-1-3.2,0.6-4.5,1.1c-3.1,1.3-6.2,2.8-9.3,4.1c-1.7,0.7-3.6,1.3-5.4,1.6
		c-2.4,0.4-3.9-0.4-4.9-2.6c-1.9-4.6,0.4-10.9,1.3-13.5c1.4-4.2,3.1-8.2,4.7-12.3c0.7-1.6,1.2-3.3,1.2-5.1c0-2.1-0.8-4.8-2.8-3.3
		s-32.8,61.3-43,61.3c-4.2,0,0.6-15.3,1.6-18c3.4-9.7,14.6-30.7,14.7-32.4c0-1.1-0.9-2.2-2-2.4c-0.9-0.2-1.9,0.2-2.4,1.3
		c-1.1,2.4-2.2,4.8-3.2,7.2c-4,9-8,17.9-11,27.3c-0.2,0.7-0.7,1.3-1.1,1.9c-9.2,12-19.2,23.3-29.1,34.7c-4.9,5.7-9.3,11.7-14,17.5
		c-5,6.2-18.7,24.5-20.6,26.5c0.5-1.5,2.7-7,3.1-8c1.5-3.7,3.1-7.4,4.6-11.1c4.5-11.3,9.1-22.6,13.6-34c3.1-7.8,6-15.8,8.9-23.7
		c0.7-1.9,1.3-3.8,1.7-5.8c0.6-2.9-0.6-5.4-3.3-6.5c-2.2-0.9-4.2,1.9-4.7,2.5c-1.7,2.3-13.2,20-18.3,25.5c-2,2.2-3.9,4.6-5.9,6.8
		c-4,4.5-8,9-12,13.5c-0.7,0.7-1.3,1.5-2,2.2c-2.3,2.3-4.7,4.5-7.5,6.3c-1.8,1.1-2.4,3.5-1.4,4.9c2.6,4,7.4,0.4,8.8-0.7
		c5.5-4,17-21,20.2-25.3c4-5.3,7.8-10.8,11.6-16.3c1.5-2.2,2.5-3.8,4.2-6.2c0.7-1,3.1-4.7,3.1-4.5c-0.1,5.8-17,51.5-22.6,66.8
		c-2.4,6.5-5,12.9-7.4,19.4c-3.2,8.6-76.1,109.7-53.3,109.7c20.3,0,50.2-91.8,52.7-99.6c1.4-4.5,3.2-8.7,6.2-12.4
		c3.2-4,6.2-8.2,9.4-12.3c9.6-12.3,19-25,29.5-36.6c3.1-3.5,6.3-6.9,9.4-10.4C116,114.2,120.3,109,124.4,103.6z M52.3,197.6
		c-0.7,2.3-3.6,11.1-4.3,13.2c-3.6,9.9-8.2,19.5-12.4,29.2c-4.5,10.5-21.4,45.5-29.3,45.5c-4.8,0,6.5-24.8,8.5-28.5
		c7.3-12.9,15.3-25.9,23-38.7c3.8-6.4,7.7-12.7,11.6-19c0.6-1,1.2-1.9,1.9-2.8c0.2-0.2,0.7-1,1.1-0.7
		C52.9,196,52.4,197.1,52.3,197.6z"/>
	<path d="M346.8,0.6c-2,1.5-4,3-6.1,4.4c-4.9,3.5-10,6.8-15.1,10c-6.1,3.8-12.8,5.9-19.6,7.7c-1.3,0.4-2.7,0.4-4.1,0.5
		c-2.2,0.2-4.2-0.1-5.9-1.9c-1.1-1.1-2.4-1.3-3.8-0.6c-0.9,0.4-7.9,5.2-10.4,7.4c-5.7,5-11.1,10.2-15,16.9c-0.6,1.1-1.4,2.1-2.3,3
		c-3.8,3.7-7.7,7.2-11.5,10.9c-4.1,4-2.2,2-6.2,6.2c-3.4,3.7-3.9,4.7-7.2,8.5c-4.4,5-1.6,1.8-5.9,6.9c-1.3,1.5-5.3,6.8-5.3,6.8
		s1.2-4.1,1.3-4.3c1.3-4.2,3.2-11.9,4.6-16.1c1.4-4.2,4.8-18.1,4.8-18.1s1-0.3,1.2-2c0.3-1.7-5-4.4-8.7-3.4
		c-3.4,0.9-6.4,2.4-8.9,4.8c-7.7,7.2-22.4,24.7-22.4,36.1c0,6.5,4.2,10.1,9.8,7.7c3.2-1.3,5.5-3.3,7.5-5c5.2-4.1,10.4-12,9.9-9.8
		c-0.5,2.2-2.8,12.4-4.1,16.9c-0.3,0.9-0.8,1.8-1.4,2.7c-3.4,5.1-6.8,10.3-10.3,15.3c-3,4.3-5.6,8.9-8.5,13.3
		c-3,4.6-5.6,9.5-8.5,14.2c-2.2,3.5-4.5,7-6.7,10.5c-0.9,1.5-1.9,3-2.8,4.5c-3.6,6.5-7.3,12.9-10.8,19.4c-3,5.5-5.9,11.1-8.5,16.8
		c-3,6.5-6,13-8.6,19.6c-1.7,4.6-3.7,9.1-5.3,13.7c-1.2,3.2-1.8,6.6-2,10c-0.2,4.5,1.4,6.3,3.3,6.3c4.8,0,13.7-6.4,18.4-11.3
		c1.5-1.6,2.7-3.3,4.2-4.8c3.3-3.1,5.6-6.8,7.8-10.6c0.2-0.3,0.6-1.8,0-1.2c-0.5,0.6-3.6,3.2-4.1,5.7c-0.1,0.6-0.8,1.3-1.4,1.7
		c-1.6,0.9-2.6,2.4-3.7,3.7c-4.6,5.4-10,9.9-16.4,13.1c-0.7,0.3-1.4,0.6-2.1,0.8c-1.9,0.5-2.8-0.1-3.1-2.2c-0.3-2.8-0.2-5.5,0.4-8.2
		c1.4-5.5,3.6-10.7,5.7-16c3.5-8.7,7.5-17.3,11.7-25.8c5.2-10.6,10.6-21.1,16.9-31.2c6.1-9.8,12.2-19.6,18.5-29.4
		c4.3-6.8,8.8-13.5,13.2-20.2c0.3-0.5,1.6-2.4,2.4-3.4c-0.2,1.4-1.7,7.2-2,8.8c-2,9.2-4.4,18.4-7,27.4c-0.9,3-1.5,6.1-2.5,9.1
		c-1.1,3.2-2,10-1.7,10s1.2-1.7,1.5-2.6c1.4-4.4,2.7-8.9,4.1-13.3c3.2-10.5,6-21.1,8.6-31.7c1-4,2-8.1,3-12.1
		c0.5-2.1,1.5-3.9,2.7-5.8c3.8-5.9,4.5-6.7,7.8-10.7c2.8-3.4,5.7-6.7,8.7-9.9c7-7.6,5.4-6.1,12.9-13.1c0.9-0.8,3.1-2.7,4.5-3.9
		c-0.8,3.3-1.1,6.9,0.2,10.1c0.7,1.8,1.8,3.4,3.7,4.1c3,1.2,6.8,0.4,9.6-0.9c2.5-1.1,4.8-2.8,6.8-4.7c1.2-1.1,2.3-2.4,3.4-3.7
		c1.5-1.9,2.9-4,4.2-6.1c1.2-2.1,2.4-4.3,3.4-6.5c1-2,1.9-4.1,2.8-6.2c1.6-4,3.7-8.8,2.4-13.1c0,0,12.5-1.1,25.2-7.5
		c7.3-3.6,22.4-15,24-16.8c0.3-0.3,1.2-1.1,0.6-1.6S347.1,0.4,346.8,0.6z M210.5,87.8c-3.9,2-7-1.1-6.5-5.5
		c0.9-7.4,13.3-24.6,16.7-28.1c6.2-6.2,10.9-6.4,14-5.9c-0.8,6.9-3.9,15.2-6.7,21.1C224.8,76.6,215.7,85.1,210.5,87.8z M296.5,34
		c-0.9,2.7-2.1,5.4-3.3,8c-2.7,5.7-11.3,19.2-20.2,21.8c-1.3,0.4-2.6,0.4-3.9,0.3c-1-0.1-1.9-0.4-2.7-1c-1-0.7-1.6-1.9-1.8-3.1
		c-0.4-2.1-0.1-4.3,0.4-6.4c0.5-1.9,1.2-3.7,2.3-5.4c0.2-0.2,0.3-0.6,0.6-0.8c3.4-2.9,6.7-5.9,10-8.9c3.3-3,6.7-5.9,10.2-8.7
		c1.9-1.5,3.9-3,5.9-4.4c0.2-0.2,0.5-0.3,0.8-0.4c0.6-0.1,1.1,0.7,1.4,1.2c0.4,0.6,0.6,1.3,0.8,2.1C297.3,30.2,297.1,32.1,296.5,34z
		"/>
	<path d="M102.2,66.5c2.4-3.6,4.3-7.5,5.5-11.7c0.6-2-0.4-3.2-1.1-3.6c-0.9-0.6-2,0-2.5,1c-2.4,4.7-7.5,13.1-7,14.7
		c0.3,0.9,2,1.3,2.6,1.1C100.7,67.7,101.7,67.2,102.2,66.5z"/>
	<path d="M205.4,161.2c-0.3,0.4,0.1,1.5-0.1,2c-0.2,0.5-1,0.4-1.1,0.8c-0.8,3.1-2.5,9-2.6,10.3c0,0.2,0,0.3,0.1,0.3
		c0.1,0,0.9-1.1,1.2-1.7c1.9-4.5,5.6-14.1,4.8-13.9C207.3,158.9,205.7,160.7,205.4,161.2z"/>
	<path d="M186,208.4c-0.3,0.5-1,1.5-0.7,1.7s4.8-6.8,6.3-10.6c0.2-0.5,0.1-1.2-0.3-0.5S187.7,205.3,186,208.4z"/>
	<path d="M199.9,178.8c0.4-0.2,1.1-1.1,1.5-2c0.5-1.1,0.7-2.3,0.3-2.1C201.1,175.1,199,179.2,199.9,178.8z"/>
	<path d="M207.8,158.8c0.4,0,1-2.5,0.7-2.5c-0.1,0-0.4,0.2-0.6,0.7C207.7,157.8,207.5,158.8,207.8,158.8z"/>
	<path d="M199.9,179.1c-0.3,0.1-2,2.1-1.1,1.8c0.4-0.1,0.9-0.5,1.1-0.9C200.1,179.6,200,179,199.9,179.1z"/>
	<path d="M197.8,183.6c-0.1,0.2-0.2,0.6,0.1,0.6s0.4-0.3,0.5-0.5c0.1-0.2,0.1-0.6-0.2-0.6S197.9,183.4,197.8,183.6z"/>
	<path d="M195.8,188.6c-0.1,0.2,0,0.3,0.1,0.3s0.6-0.5,0.6-0.6c0-0.1,0-0.4-0.2-0.3C196.2,187.9,195.9,188.4,195.8,188.6z"/>
</g>
</svg>
